<?xml version="1.0" encoding="utf-8"?>
<!-- Generator: Adobe Illustrator 22.0.1, SVG Export Plug-In . SVG Version: 6.00 Build 0)  -->
<svg version="1.1" id="레이어_1" xmlns="http://www.w3.org/2000/svg" xmlns:xlink="http://www.w3.org/1999/xlink" x="0px"
	 y="0px" viewBox="0 0 739.8 574.9" style="enable-background:new 0 0 739.8 574.9;" xml:space="preserve">
<style type="text/css">
	.st0{fill:#FFFFFF;}
</style>
<g>
	<path class="st0" d="M97,0h545.8c53.4,0,97,43.6,97,97v380.8c0,53.4-43.6,97-97,97H97c-53.4,0-97-43.6-97-97V97C0,43.6,43.6,0,97,0
		L97,0z M687.5,194.9L369.9,314.8L52.3,194.9v282.9c0,24.5,20.2,44.7,44.7,44.7h545.8c24.5,0,44.7-20.2,44.7-44.7V194.9L687.5,194.9
		z M52.3,139.2L369.9,259l317.6-119.9V97c0-24.5-20.2-44.7-44.7-44.7H97c-24.5,0-44.7,20.2-44.7,44.7V139.2L52.3,139.2z"/>
</g>
</svg>
