<?xml version="1.0" encoding="utf-8"?>
<!-- Generator: Adobe Illustrator 22.0.1, SVG Export Plug-In . SVG Version: 6.00 Build 0)  -->
<svg version="1.1" id="regular" xmlns="http://www.w3.org/2000/svg" xmlns:xlink="http://www.w3.org/1999/xlink" x="0px" y="0px"
	 viewBox="0 0 512 512" style="enable-background:new 0 0 512 512;" xml:space="preserve">
<style type="text/css">
	.st0{fill:#FFFFFF;}
</style>
<path class="st0" d="M256,0C113.8,0,28,87.7,6.2,174.6c-22.7,90.1,16.9,176.4,103.6,228C90.5,472.5,78.8,496,97.3,508.5
	c20.7,14.1,50.4-15.1,100.1-53.2l20.4-15.6c80,10.4,161.5-12.7,219.1-62.1C485.3,336,512,280.4,512,221.1C512,99.2,397.2,0,256,0
	L256,0z M416.1,353.2c-52.4,44.9-127.3,65-200.3,53.8c-10.2-1.6-55.3,37.8-92,63.4c4.1-15.7,12.2-42.1,20.1-71.5
	c1.9-7.2-1.3-14.7-7.9-18.2C39.5,328.9,21.7,244.3,37.2,182.4C56.1,107.5,131,32,256,32c123.5,0,224,84.8,224,189.1
	C480,270.9,457.3,317.9,416.1,353.2L416.1,353.2z"/>
<path class="st0" d="M138.7,165.3h-64c-21.2,0-21.2,32,0,32h16V288c0,21.2,32,21.2,32,0v-90.7h16
	C159.8,197.3,159.9,165.3,138.7,165.3z"/>
<path class="st0" d="M217.5,175.4c0-0.1-0.1-0.1-0.1-0.1c-5.2-12.7-24-13.3-29.5,0c0,0-0.1,0.1-0.1,0.1l-42.7,106.7
	c-3.3,8.2,0.7,17.5,8.9,20.8c20.4,8.2,24.1-20.7,29.6-30.8h38.1l8.8,21.9c7.8,19.6,37.6,7.8,29.7-11.9L217.5,175.4z M196.4,240
	l6.2-15.6l6.2,15.6H196.4z"/>
<path class="st0" d="M330.7,272H304v-90.7c0-21.2-32-21.2-32,0V288c0,8.8,7.2,16,16,16h42.7C351.8,304,351.9,272,330.7,272z"/>
<path class="st0" d="M389.3,206.7v-25.4c0-21.2-32-21.2-32,0V288c0,21.2,32,21.2,32,0v-31.3c34.2,37.2,35.3,47.3,48,47.3
	c13.4,0,21.1-15.9,12.1-26.4l-39.6-46.1l38.9-38.9c0-0.1,0.1-0.1,0.1-0.2c0,0,0,0,0.1-0.1c14.5-15.1-8-37.3-22.8-22.4L389.3,206.7z"
	/>
</svg>
