<?xml version="1.0" encoding="utf-8"?>
<!-- Generator: Adobe Illustrator 22.0.1, SVG Export Plug-In . SVG Version: 6.00 Build 0)  -->
<svg version="1.1" id="레이어_1" xmlns="http://www.w3.org/2000/svg" xmlns:xlink="http://www.w3.org/1999/xlink" x="0px"
	 y="0px" viewBox="0 0 96 96.1" style="enable-background:new 0 0 96 96.1;" xml:space="preserve">
<style type="text/css">
	.st0{fill:#FFFFFF;}
</style>
<g>
	<path class="st0" d="M48,5.8c-14.5,0-26.3,11.8-26.3,26.3c0,14,24,54.3,25,56l1.3,2.2l1.3-2.2c1-1.7,25-42,25-56
		C74.3,17.6,62.5,5.8,48,5.8z M48,84.3c-4.7-8.2-23.3-40.9-23.3-52.2C24.7,19.2,35.2,8.8,48,8.8s23.3,10.4,23.3,23.3
		C71.3,43.4,52.7,76.1,48,84.3z"/>
	<path class="st0" d="M48,21c-6.6,0-11.9,5.4-11.9,11.9s5.3,12,11.9,12S59.9,39.5,59.9,33S54.6,21,48,21z M48,41.9
		c-4.9,0-8.9-4-8.9-8.9s4-8.9,8.9-8.9s8.9,4,8.9,8.9S52.9,41.9,48,41.9z"/>
</g>
</svg>
