<?xml version="1.0" encoding="utf-8"?>
<!-- Generator: Adobe Illustrator 22.0.1, SVG Export Plug-In . SVG Version: 6.00 Build 0)  -->
<svg version="1.1" xmlns="http://www.w3.org/2000/svg" xmlns:xlink="http://www.w3.org/1999/xlink" x="0px" y="0px"
	 viewBox="0 0 59 92" style="enable-background:new 0 0 59 92;" xml:space="preserve">
<style type="text/css">
	.st0{fill:#FFFFFF;}
</style>
<g id="레이어_1">
	<path class="st0" d="M5.1,79.5c0,4.4,3.6,8,8,8h34c4.4,0,8-3.6,8-8v-68c0-4.4-3.6-8-8-8h-34c-4.4,0-8,3.6-8,8
		C5.1,11.5,5.1,79.5,5.1,79.5z M9.1,11.5c0-2.2,1.8-4,4-4h34c2.2,0,4,1.8,4,4v68c0,2.2-1.8,4-4,4h-34c-2.2,0-4-1.8-4-4
		C9.1,79.5,9.1,11.5,9.1,11.5z M26.1,75.5c0-2.2,1.8-4,4-4s4,1.8,4,4s-1.8,4-4,4S26.1,77.7,26.1,75.5z"/>
</g>
<g id="레이어_2">
</g>
</svg>
