<?xml version="1.0" encoding="utf-8"?>
<!-- Generator: Adobe Illustrator 24.1.1, SVG Export Plug-In . SVG Version: 6.00 Build 0)  -->
<svg version="1.1" id="레이어_1" xmlns="http://www.w3.org/2000/svg" xmlns:xlink="http://www.w3.org/1999/xlink" x="0px"
	 y="0px" viewBox="0 0 64 64" style="enable-background:new 0 0 64 64;" xml:space="preserve">
<style type="text/css">
	.st0{display:none;}
	.st1{display:inline;}
	.st2{fill:none;stroke:#000000;stroke-width:2;stroke-miterlimit:10;}
	.st3{fill:none;stroke:#000000;stroke-miterlimit:10;}
	.st4{fill:none;stroke:#000000;stroke-width:4;stroke-miterlimit:10;}
</style>
<g class="st0">
	<rect x="-20" y="-272" class="st1" width="20" height="430"/>
	<rect x="-631" y="64" class="st1" width="1023" height="20"/>
	<rect x="-558" y="-289.7" class="st1" width="947.4" height="496.2"/>
</g>
<g class="st0">
	<g class="st1">
		<g>
			<path d="M16.9,16.1c0.8-0.1,2-0.3,3.7-0.3c1.7,0,2.9,0.3,3.7,1c0.8,0.6,1.3,1.6,1.3,2.8c0,1.2-0.4,2.2-1.1,2.9
				c-0.9,0.9-2.3,1.3-3.9,1.3c-0.4,0-0.7,0-0.9-0.1v4.3h-2.7L16.9,16.1L16.9,16.1z M19.5,21.5c0.2,0.1,0.5,0.1,0.9,0.1
				c1.4,0,2.3-0.7,2.3-2c0-1.1-0.8-1.8-2.1-1.8c-0.6,0-0.9,0.1-1.1,0.1V21.5z"/>
		</g>
		<g>
			<path d="M29.8,15.9v4.6h4.5v-4.6H37v12h-2.7v-5h-4.5v5h-2.7v-12H29.8z"/>
		</g>
		<g>
			<path d="M39.2,16.1c0.8-0.1,2-0.3,3.7-0.3c1.7,0,2.9,0.3,3.7,1c0.8,0.6,1.3,1.6,1.3,2.8c0,1.2-0.4,2.2-1.1,2.9
				c-0.9,0.9-2.3,1.3-3.9,1.3c-0.4,0-0.7,0-0.9-0.1v4.3h-2.7L39.2,16.1L39.2,16.1z M41.9,21.5c0.2,0.1,0.5,0.1,0.9,0.1
				c1.4,0,2.3-0.7,2.3-2c0-1.1-0.8-1.8-2.1-1.8c-0.6,0-0.9,0.1-1.1,0.1V21.5z"/>
		</g>
	</g>
	<g class="st1">
		<g>
			<path d="M49.6,2c3,0,5.4,2.4,5.4,5.4v49.2c0,3-2.4,5.4-5.4,5.4H14.4c-3,0-5.4-2.4-5.4-5.4V7.4c0-3,2.4-5.4,5.4-5.4H49.6 M49.6,0
				H14.4C10.3,0,7,3.3,7,7.4v49.2c0,4.1,3.3,7.4,7.4,7.4h35.2c4.1,0,7.4-3.3,7.4-7.4V7.4C57,3.3,53.7,0,49.6,0L49.6,0z"/>
		</g>
	</g>
	<g class="st1">
		<g>
			<g>
				<line class="st2" x1="14.3" y1="41.4" x2="49.6" y2="41.4"/>
			</g>
			<g>
				<line class="st2" x1="14.3" y1="46.3" x2="49.6" y2="46.3"/>
			</g>
			<g>
				<line class="st2" x1="14.3" y1="51.2" x2="49.6" y2="51.2"/>
			</g>
		</g>
	</g>
</g>
<g class="st0">
	<g class="st1">
		<g>
			<path d="M16.9,16.1c0.8-0.1,2-0.3,3.7-0.3c1.7,0,2.9,0.3,3.7,1c0.8,0.6,1.3,1.6,1.3,2.8c0,1.2-0.4,2.2-1.1,2.9
				c-0.9,0.9-2.3,1.3-3.9,1.3c-0.4,0-0.7,0-0.9-0.1v4.3h-2.7L16.9,16.1L16.9,16.1z M19.5,21.5c0.2,0.1,0.5,0.1,0.9,0.1
				c1.4,0,2.3-0.7,2.3-2c0-1.1-0.8-1.8-2.1-1.8c-0.6,0-0.9,0.1-1.1,0.1V21.5z"/>
		</g>
		<g>
			<path d="M29.8,15.9v4.6h4.5v-4.6H37v12h-2.7v-5h-4.5v5h-2.7v-12H29.8z"/>
		</g>
		<g>
			<path d="M39.2,16.1c0.8-0.1,2-0.3,3.7-0.3c1.7,0,2.9,0.3,3.7,1c0.8,0.6,1.3,1.6,1.3,2.8c0,1.2-0.4,2.2-1.1,2.9
				c-0.9,0.9-2.3,1.3-3.9,1.3c-0.4,0-0.7,0-0.9-0.1v4.3h-2.7L39.2,16.1L39.2,16.1z M41.9,21.5c0.2,0.1,0.5,0.1,0.9,0.1
				c1.4,0,2.3-0.7,2.3-2c0-1.1-0.8-1.8-2.1-1.8c-0.6,0-0.9,0.1-1.1,0.1V21.5z"/>
		</g>
	</g>
	<g class="st1">
		<g>
			<path d="M49.6,1C53.1,1,56,3.9,56,7.4v49.2c0,3.5-2.9,6.4-6.4,6.4H14.4C10.9,63,8,60.1,8,56.6V7.4C8,3.9,10.9,1,14.4,1H49.6
				 M49.6,0H14.4C10.3,0,7,3.3,7,7.4v49.2c0,4.1,3.3,7.4,7.4,7.4h35.2c4.1,0,7.4-3.3,7.4-7.4V7.4C57,3.3,53.7,0,49.6,0L49.6,0z"/>
		</g>
	</g>
	<g class="st1">
		<g>
			<g>
				<line class="st3" x1="14.3" y1="41.4" x2="49.6" y2="41.4"/>
			</g>
			<g>
				<line class="st3" x1="14.3" y1="46.3" x2="49.6" y2="46.3"/>
			</g>
			<g>
				<line class="st3" x1="14.3" y1="51.2" x2="49.6" y2="51.2"/>
			</g>
		</g>
	</g>
</g>
<g class="st0">
	<g class="st1">
		<g>
			<path d="M16.9,15.6c0.8-0.1,2-0.3,3.7-0.3c1.7,0,2.9,0.3,3.7,1c0.8,0.6,1.3,1.6,1.3,2.8c0,1.2-0.4,2.2-1.1,2.9
				c-0.9,0.9-2.3,1.3-3.9,1.3c-0.4,0-0.7,0-0.9-0.1v4.3h-2.7L16.9,15.6L16.9,15.6z M19.5,21c0.2,0.1,0.5,0.1,0.9,0.1
				c1.4,0,2.3-0.7,2.3-2c0-1.1-0.8-1.8-2.1-1.8c-0.6,0-0.9,0.1-1.1,0.1V21z"/>
		</g>
		<g>
			<path d="M29.8,15.4V20h4.5v-4.6H37v12h-2.7v-5h-4.5v5h-2.7v-12H29.8z"/>
		</g>
		<g>
			<path d="M39.2,15.6c0.8-0.1,2-0.3,3.7-0.3c1.7,0,2.9,0.3,3.7,1c0.8,0.6,1.3,1.6,1.3,2.8c0,1.2-0.4,2.2-1.1,2.9
				c-0.9,0.9-2.3,1.3-3.9,1.3c-0.4,0-0.7,0-0.9-0.1v4.3h-2.7L39.2,15.6L39.2,15.6z M41.9,21c0.2,0.1,0.5,0.1,0.9,0.1
				c1.4,0,2.3-0.7,2.3-2c0-1.1-0.8-1.8-2.1-1.8c-0.6,0-0.9,0.1-1.1,0.1V21z"/>
		</g>
	</g>
	<g class="st1">
		<g>
			<g>
				<path d="M51.1,4c1.9,0,3.4,1.5,3.4,3.4v49.2c0,1.9-1.5,3.4-3.4,3.4H12.9c-1.9,0-3.4-1.5-3.4-3.4V7.4C9.5,5.5,11,4,12.9,4H51.1
					 M51.1,0H12.9C8.8,0,5.5,3.3,5.5,7.4v49.2c0,4.1,3.3,7.4,7.4,7.4h38.2c4.1,0,7.4-3.3,7.4-7.4V7.4C58.5,3.3,55.2,0,51.1,0L51.1,0
					z"/>
			</g>
		</g>
		<g>
			<g>
				<line class="st4" x1="15" y1="40.7" x2="49" y2="40.7"/>
			</g>
			<g>
				<line class="st4" x1="15" y1="46.6" x2="49" y2="46.6"/>
			</g>
			<g>
				<line class="st4" x1="15" y1="52.5" x2="49" y2="52.5"/>
			</g>
		</g>
	</g>
</g>
<g class="st0">
	<g class="st1">
		<g>
			<path d="M16.9,16.1c0.8-0.1,2-0.3,3.7-0.3c1.7,0,2.9,0.3,3.7,1c0.8,0.6,1.3,1.6,1.3,2.8c0,1.2-0.4,2.2-1.1,2.9
				c-0.9,0.9-2.3,1.3-3.9,1.3c-0.4,0-0.7,0-0.9-0.1v4.3h-2.7L16.9,16.1L16.9,16.1z M19.5,21.5c0.2,0.1,0.5,0.1,0.9,0.1
				c1.4,0,2.3-0.7,2.3-2c0-1.1-0.8-1.8-2.1-1.8c-0.6,0-0.9,0.1-1.1,0.1V21.5z"/>
		</g>
		<g>
			<path d="M29.8,15.9v4.6h4.5v-4.6H37v12h-2.7v-5h-4.5v5h-2.7v-12H29.8z"/>
		</g>
		<g>
			<path d="M39.2,16.1c0.8-0.1,2-0.3,3.7-0.3c1.7,0,2.9,0.3,3.7,1c0.8,0.6,1.3,1.6,1.3,2.8c0,1.2-0.4,2.2-1.1,2.9
				c-0.9,0.9-2.3,1.3-3.9,1.3c-0.4,0-0.7,0-0.9-0.1v4.3h-2.7L39.2,16.1L39.2,16.1z M41.9,21.5c0.2,0.1,0.5,0.1,0.9,0.1
				c1.4,0,2.3-0.7,2.3-2c0-1.1-0.8-1.8-2.1-1.8c-0.6,0-0.9,0.1-1.1,0.1V21.5z"/>
		</g>
	</g>
	<g class="st1">
		<g>
			<path d="M55,2v54.6c0,3-2.4,5.4-5.4,5.4H9V7.4c0-3,2.4-5.4,5.4-5.4H55 M57,0H14.4C10.3,0,7,3.3,7,7.4V64h42.6
				c4.1,0,7.4-3.3,7.4-7.4V0L57,0z"/>
		</g>
	</g>
	<g class="st1">
		<g>
			<g>
				<line class="st2" x1="14.3" y1="41.4" x2="49.6" y2="41.4"/>
			</g>
			<g>
				<line class="st2" x1="14.3" y1="46.3" x2="49.6" y2="46.3"/>
			</g>
			<g>
				<line class="st2" x1="14.3" y1="51.2" x2="49.6" y2="51.2"/>
			</g>
		</g>
	</g>
</g>
<g class="st0">
	<g class="st1">
		<g>
			<path d="M16.9,16.1c0.8-0.1,2-0.3,3.7-0.3c1.7,0,2.9,0.3,3.7,1c0.8,0.6,1.3,1.6,1.3,2.8c0,1.2-0.4,2.2-1.1,2.9
				c-0.9,0.9-2.3,1.3-3.9,1.3c-0.4,0-0.7,0-0.9-0.1v4.3h-2.7L16.9,16.1L16.9,16.1z M19.5,21.5c0.2,0.1,0.5,0.1,0.9,0.1
				c1.4,0,2.3-0.7,2.3-2c0-1.1-0.8-1.8-2.1-1.8c-0.6,0-0.9,0.1-1.1,0.1V21.5z"/>
		</g>
		<g>
			<path d="M29.8,15.9v4.6h4.5v-4.6H37v12h-2.7v-5h-4.5v5h-2.7v-12H29.8z"/>
		</g>
		<g>
			<path d="M39.2,16.1c0.8-0.1,2-0.3,3.7-0.3c1.7,0,2.9,0.3,3.7,1c0.8,0.6,1.3,1.6,1.3,2.8c0,1.2-0.4,2.2-1.1,2.9
				c-0.9,0.9-2.3,1.3-3.9,1.3c-0.4,0-0.7,0-0.9-0.1v4.3h-2.7L39.2,16.1L39.2,16.1z M41.9,21.5c0.2,0.1,0.5,0.1,0.9,0.1
				c1.4,0,2.3-0.7,2.3-2c0-1.1-0.8-1.8-2.1-1.8c-0.6,0-0.9,0.1-1.1,0.1V21.5z"/>
		</g>
	</g>
	<g class="st1">
		<g>
			<path d="M56,1v55.6c0,3.5-2.9,6.4-6.4,6.4H8V7.4C8,3.9,10.9,1,14.4,1H56 M57,0H14.4C10.3,0,7,3.3,7,7.4V64h42.6
				c4.1,0,7.4-3.3,7.4-7.4V0L57,0z"/>
		</g>
	</g>
	<g class="st1">
		<g>
			<g>
				<line class="st3" x1="14.3" y1="41.4" x2="49.6" y2="41.4"/>
			</g>
			<g>
				<line class="st3" x1="14.3" y1="46.3" x2="49.6" y2="46.3"/>
			</g>
			<g>
				<line class="st3" x1="14.3" y1="51.2" x2="49.6" y2="51.2"/>
			</g>
		</g>
	</g>
</g>
<g>
	<g>
		<path d="M19.5,23.6c0.3,0,0.6,0.1,0.9,0.1c1.6,0,3-0.4,3.9-1.3c0.7-0.7,1.1-1.7,1.1-2.9c0-1.2-0.5-2.2-1.3-2.8c-0.8-0.6-2-1-3.7-1
			c-1.7,0-2.8,0.1-3.7,0.2v11.9h2.7L19.5,23.6L19.5,23.6z M19.5,18c0.2-0.1,0.6-0.1,1.1-0.1c1.4,0,2.1,0.7,2.1,1.8
			c0,1.2-0.9,2-2.3,2c-0.4,0-0.7,0-0.9-0.1V18z"/>
		<polygon points="29.8,22.9 34.3,22.9 34.3,27.9 37,27.9 37,15.9 34.3,15.9 34.3,20.5 29.8,20.5 29.8,15.9 27.1,15.9 27.1,27.9 
			29.8,27.9 		"/>
		<path d="M41.9,23.6c0.3,0,0.6,0.1,0.9,0.1c1.6,0,3-0.4,3.9-1.3c0.7-0.7,1.1-1.7,1.1-2.9c0-1.2-0.5-2.2-1.3-2.8c-0.8-0.6-2-1-3.7-1
			c-1.7,0-2.8,0.1-3.7,0.2v11.9h2.7L41.9,23.6L41.9,23.6z M41.9,18c0.2-0.1,0.6-0.1,1.1-0.1c1.4,0,2.1,0.7,2.1,1.8
			c0,1.2-0.9,2-2.3,2c-0.4,0-0.7,0-0.9-0.1V18z"/>
		<rect x="14.3" y="38.4" width="35.3" height="4"/>
		<rect x="14.3" y="44.3" width="35.3" height="4"/>
		<rect x="14.3" y="50.2" width="35.3" height="4"/>
		<path d="M5.5,7.4V64h45.6c4.1,0,7.4-3.3,7.4-7.4V0H12.9C8.8,0,5.5,3.3,5.5,7.4z M54.5,56.6c0,1.9-1.5,3.4-3.4,3.4H9.5V7.4
			C9.5,5.5,11,4,12.9,4h41.6V56.6z"/>
	</g>
</g>
<g class="st0">
	<g class="st1">
		<g>
			<path d="M16.9,16.1c0.8-0.1,2-0.3,3.7-0.3c1.7,0,2.9,0.3,3.7,1c0.8,0.6,1.3,1.6,1.3,2.8c0,1.2-0.4,2.2-1.1,2.9
				c-0.9,0.9-2.3,1.3-3.9,1.3c-0.4,0-0.7,0-0.9-0.1v4.3h-2.7L16.9,16.1L16.9,16.1z M19.5,21.5c0.2,0.1,0.5,0.1,0.9,0.1
				c1.4,0,2.3-0.7,2.3-2c0-1.1-0.8-1.8-2.1-1.8c-0.6,0-0.9,0.1-1.1,0.1V21.5z"/>
		</g>
		<g>
			<path d="M29.8,15.9v4.6h4.5v-4.6H37v12h-2.7v-5h-4.5v5h-2.7v-12H29.8z"/>
		</g>
		<g>
			<path d="M39.2,16.1c0.8-0.1,2-0.3,3.7-0.3c1.7,0,2.9,0.3,3.7,1c0.8,0.6,1.3,1.6,1.3,2.8c0,1.2-0.4,2.2-1.1,2.9
				c-0.9,0.9-2.3,1.3-3.9,1.3c-0.4,0-0.7,0-0.9-0.1v4.3h-2.7L39.2,16.1L39.2,16.1z M41.9,21.5c0.2,0.1,0.5,0.1,0.9,0.1
				c1.4,0,2.3-0.7,2.3-2c0-1.1-0.8-1.8-2.1-1.8c-0.6,0-0.9,0.1-1.1,0.1V21.5z"/>
		</g>
	</g>
	<g class="st1">
		<g>
			<line class="st3" x1="7" y1="58.7" x2="7" y2="5.3"/>
			<line class="st3" x1="57" y1="5.3" x2="57" y2="58.7"/>
		</g>
		<g>
			<g>
				<g>
					<path d="M58.8,1v3.6H5.2V1H58.8 M59.8,0H4.2v5.6h55.5L59.8,0L59.8,0z"/>
				</g>
			</g>
			<g>
				<g>
					<path d="M58.8,59.4V63H5.2v-3.6H58.8 M59.8,58.4H4.2V64h55.5L59.8,58.4L59.8,58.4z"/>
				</g>
			</g>
		</g>
	</g>
	<g class="st1">
		<g>
			<g>
				<line class="st3" x1="14.3" y1="39.4" x2="49.6" y2="39.4"/>
			</g>
			<g>
				<line class="st3" x1="14.3" y1="44.3" x2="49.6" y2="44.3"/>
			</g>
			<g>
				<line class="st3" x1="14.3" y1="49.2" x2="49.6" y2="49.2"/>
			</g>
		</g>
	</g>
</g>
<g class="st0">
	<g class="st1">
		<path d="M16.9,16.1c0.8-0.1,2-0.3,3.7-0.3c1.7,0,2.9,0.3,3.7,1c0.8,0.6,1.3,1.6,1.3,2.8c0,1.2-0.4,2.2-1.1,2.9
			c-0.9,0.9-2.3,1.3-3.9,1.3c-0.4,0-0.7,0-0.9-0.1v4.3h-2.7L16.9,16.1L16.9,16.1z M19.5,21.5c0.2,0.1,0.5,0.1,0.9,0.1
			c1.4,0,2.3-0.7,2.3-2c0-1.1-0.8-1.8-2.1-1.8c-0.6,0-0.9,0.1-1.1,0.1V21.5z"/>
		<path d="M29.8,15.9v4.6h4.5v-4.6H37v12h-2.7v-5h-4.5v5h-2.7v-12H29.8z"/>
		<path d="M39.2,16.1c0.8-0.1,2-0.3,3.7-0.3c1.7,0,2.9,0.3,3.7,1c0.8,0.6,1.3,1.6,1.3,2.8c0,1.2-0.4,2.2-1.1,2.9
			c-0.9,0.9-2.3,1.3-3.9,1.3c-0.4,0-0.7,0-0.9-0.1v4.3h-2.7L39.2,16.1L39.2,16.1z M41.9,21.5c0.2,0.1,0.5,0.1,0.9,0.1
			c1.4,0,2.3-0.7,2.3-2c0-1.1-0.8-1.8-2.1-1.8c-0.6,0-0.9,0.1-1.1,0.1V21.5z"/>
	</g>
	<g class="st1">
		<g>
			<line class="st4" x1="6.5" y1="61.5" x2="6.5" y2="2.5"/>
			<line class="st4" x1="57.5" y1="2.5" x2="57.5" y2="61.5"/>
		</g>
		<g>
			<line class="st4" x1="64" y1="2" x2="0" y2="2"/>
			<line class="st4" x1="64" y1="62" x2="0" y2="62"/>
		</g>
		<g>
			<line class="st4" x1="14.3" y1="38.4" x2="49.6" y2="38.4"/>
		</g>
		<g>
			<line class="st4" x1="14.3" y1="44.3" x2="49.6" y2="44.3"/>
		</g>
		<g>
			<line class="st4" x1="14.3" y1="50.2" x2="49.6" y2="50.2"/>
		</g>
	</g>
</g>
</svg>
