<?xml version="1.0" encoding="utf-8"?>
<!-- Generator: Adobe Illustrator 24.1.1, SVG Export Plug-In . SVG Version: 6.00 Build 0)  -->
<svg version="1.1" id="레이어_1" xmlns="http://www.w3.org/2000/svg" xmlns:xlink="http://www.w3.org/1999/xlink" x="0px"
	 y="0px" viewBox="0 0 80 79.9" style="enable-background:new 0 0 80 79.9;" xml:space="preserve">
<path d="M71,3H9C5.7,3,3,5.7,3,9v28c0,1.1,0.9,2,2,2s2-0.9,2-2V9c0-1.1,0.9-2,2-2h62c1.1,0,2,0.9,2,2v28c0,1.1,0.9,2,2,2s2-0.9,2-2
	V9C77,5.7,74.3,3,71,3z"/>
<path d="M56,19.9c-0.9-1.2-2.4-2-4-2h0c-1.6,0-3,0.8-4,2L32.4,41l-9.2-7c-1.9-1.5-4.7-1.4-6.4,0.3L4.6,45.6c-1,0.9-1.6,2.3-1.6,3.7
	V57c0,1.1,0.9,2,2,2s2-0.9,2-2v-7.7c0-0.3,0.1-0.5,0.3-0.7l12.2-11.4c0.4-0.3,0.9-0.4,1.3-0.1l15.3,11.7c0.9,0.7,2.1,0.5,2.8-0.4
	s0.5-2.1-0.4-2.8l-2.9-2.2l15.7-21c0.2-0.3,0.5-0.4,0.8-0.4h0c0.3,0,0.6,0.1,0.8,0.4l20,26c0.1,0.2,0.2,0.4,0.2,0.6v23
	c0,0.6-0.4,1-1,1H46c-1.1,0-2,0.9-2,2s0.9,2,2,2h26c2.8,0,5-2.2,5-5V49c0-1.1-0.4-2.2-1-3L56,19.9z"/>
<path d="M29,26c3.9,0,7-3.1,7-7s-3.1-7-7-7s-7,3.1-7,7C22,22.9,25.1,26,29,26z M29,16c1.7,0,3,1.3,3,3s-1.3,3-3,3s-3-1.3-3-3
	S27.3,16,29,16z"/>
<path d="M5,77c1.1,0,2-0.9,2-2v-4h2c2.8,0,5-2.2,5-5c0-2.8-2.2-5-5-5H5c-1.1,0-2,0.9-2,2v12C3,76.1,3.9,77,5,77z M7,65h2
	c0.6,0,1,0.4,1,1s-0.4,1-1,1H7V65z"/>
<path d="M22,73h-4c-1.1,0-2,0.9-2,2s0.9,2,2,2h4c2.8,0,5-2.2,5-5s-2.2-5-5-5h-1c-0.6,0-1-0.4-1-1s0.4-1,1-1h4c1.1,0,2-0.9,2-2
	s-0.9-2-2-2h-4c-2.8,0-5,2.2-5,5c0,2.8,2.2,5,5,5h1c0.6,0,1,0.4,1,1S22.6,73,22,73z"/>
<path d="M36,77c3.3,0,6-2.7,6-6v-4c0-3.3-2.7-6-6-6h-5c-1.1,0-2,0.9-2,2v12c0,1.1,0.9,2,2,2H36z M33,65h3c1.1,0,2,0.9,2,2v4
	c0,1.1-0.9,2-2,2h-3V65z"/>
</svg>
