<?xml version="1.0" encoding="utf-8"?>
<!-- Generator: Adobe Illustrator 22.0.1, SVG Export Plug-In . SVG Version: 6.00 Build 0)  -->
<svg version="1.1" id="OutLine" xmlns="http://www.w3.org/2000/svg" xmlns:xlink="http://www.w3.org/1999/xlink" x="0px" y="0px"
	 viewBox="0 0 512 512" style="enable-background:new 0 0 512 512;" xml:space="preserve">
<path d="M349.7,18.3c-1.5-1.5-3.5-2.3-5.7-2.3H120c-30.9,0-56,25.1-56,56v368c0,30.9,25.1,56,56,56h272c30.9,0,56-25.1,56-56V120
	c0-2.1-0.8-4.2-2.3-5.7L349.7,18.3z M352,43.3l68.7,68.7H392c-22.1,0-40-17.9-40-40V43.3z M120,32h216v40c0,30.9,25.1,56,56,56h40
	v224H80V72C80,49.9,97.9,32,120,32z M392,480H120c-22.1,0-40-17.9-40-40v-72h352v72C432,462.1,414.1,480,392,480z"/>
<path d="M328,384c-4.4,0-8,3.6-8,8v48c0,4.4-3.6,8-8,8s-8-3.6-8-8s-3.6-8-8-8s-8,3.6-8,8c0,13.3,10.7,24,24,24s24-10.7,24-24l0,0
	v-48C336,387.6,332.4,384,328,384z"/>
<path d="M376,400h16c4.4,0,8-3.6,8-8s-3.6-8-8-8h-16c-13.3,0-24,10.7-24,24s10.7,24,24,24c4.4,0,8,3.6,8,8s-3.6,8-8,8h-16
	c-4.4,0-8,3.6-8,8s3.6,8,8,8h16c13.3,0,24-10.7,24-24s-10.7-24-24-24c-4.4,0-8-3.6-8-8S371.6,400,376,400z"/>
<circle cx="264" cy="456" r="8"/>
<path d="M147.1,431.8c13.1-1.7,22.4-13.8,20.6-26.9C166.2,392.9,156,384,144,384h-16c-4.4,0-8,3.6-8,8v64c0,4.4,3.6,8,8,8s8-3.6,8-8
	v-12.7l18.3,18.3c3.1,3.1,8.2,3.1,11.3,0s3.1-8.2,0-11.3L147.1,431.8z M136,400h8c4.4,0,8,3.6,8,8s-3.6,8-8,8h-8V400z"/>
<path d="M232,400c4.4,0,8-3.6,8-8s-3.6-8-8-8h-32c-4.4,0-8,3.6-8,8v64c0,4.4,3.6,8,8,8h32c4.4,0,8-3.6,8-8s-3.6-8-8-8h-24v-16h8
	c4.4,0,8-3.6,8-8s-3.6-8-8-8h-8v-16H232z"/>
<path d="M331.6,167.8c-2.5-0.8-5-1.6-7.5-2.4c0.4-1.7,0.8-3.4,1.2-5.2c5.7-27.7,2-50-10.7-57.3c-12.2-7-32.2,0.3-52.3,17.8
	c-2,1.7-4,3.5-5.8,5.3c-1.3-1.2-2.6-2.4-3.9-3.6c-21.2-18.8-42.3-26.7-55-19.3c-12.2,7.1-15.8,28-10.7,54.2c0.5,2.6,1.1,5.2,1.7,7.8
	c-3,0.8-5.9,1.8-8.6,2.7c-24.8,8.6-42.6,22.2-42.6,36.2c0,14.5,19,29.1,44.8,37.9c2.1,0.7,4.2,1.4,6.3,2c-0.7,2.8-1.3,5.5-1.9,8.4
	c-4.9,25.8-1.1,46.3,11.1,53.3c12.6,7.3,33.7-0.2,54.2-18.2c1.6-1.4,3.3-2.9,4.9-4.5c2,2,4.2,3.9,6.3,5.8c19.9,17.1,39.6,24,51.7,17
	c12.6-7.3,16.6-29.2,11.3-56c-0.4-2-0.9-4.1-1.4-6.3c1.5-0.4,2.9-0.9,4.4-1.3c26.8-8.9,46.3-23.2,46.3-38
	C375.2,190.1,356.9,176.5,331.6,167.8L331.6,167.8z M268.7,128.3c17.3-15.1,33.4-21,40.8-16.7c7.9,4.5,10.9,22.7,5.9,46.7
	c-0.3,1.6-0.7,3.1-1.1,4.6c-10.3-2.3-20.8-4-31.3-4.9c-6-8.6-12.6-16.9-19.8-24.7C265.1,131.6,266.9,129.9,268.7,128.3z
	 M214.9,228.3c2.4,4,4.8,8.1,7.3,12c-7.3-0.8-14.5-2-21.6-3.5c2-6.7,4.6-13.6,7.6-20.7C210.4,220.3,212.6,224.3,214.9,228.3
	L214.9,228.3z M200.8,172.4c6.7-1.5,13.8-2.7,21.2-3.6c-2.5,3.9-4.9,7.8-7.2,11.8c-2.3,4-4.5,8-6.6,12.1
	C205.4,185.8,202.9,179,200.8,172.4L200.8,172.4z M213.6,204.4c3.1-6.4,6.4-12.7,9.9-18.9c3.5-6.2,7.3-12.2,11.3-18.1
	c7-0.5,14.1-0.8,21.3-0.8c7.3,0,14.4,0.3,21.3,0.8c4,5.9,7.7,11.9,11.3,18s6.9,12.4,10.1,18.8c-3.1,6.4-6.5,12.7-10,19
	c-3.5,6.2-7.3,12.2-11.2,18.1c-6.9,0.5-14.1,0.7-21.4,0.7c-7.3,0-14.4-0.2-21.2-0.7c-4-5.9-7.9-11.9-11.4-18.1
	S216.7,210.9,213.6,204.4L213.6,204.4z M297.5,228.2c2.4-4.1,4.6-8.2,6.8-12.4c3,6.7,5.6,13.6,7.9,20.6c-7.2,1.6-14.5,2.9-21.8,3.7
	C292.8,236.2,295.2,232.2,297.5,228.2L297.5,228.2z M304.2,192.7c-2.2-4.1-4.4-8.2-6.7-12.2c-2.3-4-4.6-7.9-7.1-11.7
	c7.5,0.9,14.6,2.2,21.3,3.7C309.6,179.4,307.1,186.1,304.2,192.7z M256.3,140.4c4.9,5.3,9.5,10.9,13.8,16.6
	c-9.2-0.4-18.5-0.4-27.7,0C247,151,251.7,145.5,256.3,140.4z M202.4,111.9c7.8-4.6,25.1,2,43.4,18.1c1.2,1,2.3,2.1,3.5,3.3
	c-7.2,7.8-13.9,16-19.9,24.7c-10.5,0.9-20.9,2.6-31.2,4.8c-0.6-2.4-1.1-4.8-1.6-7.2C192.2,133.1,195,116.1,202.4,111.9L202.4,111.9z
	 M191,234.4c-2-0.6-3.9-1.2-5.8-1.8c-9.9-3.1-21.2-8-29.3-14.5c-4.7-3.3-7.9-8.3-8.7-13.9c0-8.5,14.7-19.4,35.9-26.8
	c2.6-0.9,5.3-1.8,8-2.6c3.2,10.1,7,20,11.4,29.6C198.1,214.2,194.2,224.2,191,234.4z M245.2,280c-7.7,7-16.5,12.6-26.2,16.4
	c-5.2,2.5-11.1,2.7-16.4,0.6c-7.4-4.3-10.5-20.7-6.3-42.8c0.5-2.6,1.1-5.2,1.7-7.8c10.4,2.2,20.9,3.8,31.6,4.6
	c6.1,8.7,12.9,17,20.1,24.8C248.2,277.3,246.7,278.7,245.2,280L245.2,280z M256.6,268.7c-4.7-5.1-9.5-10.8-14.1-16.9
	c4.5,0.2,9.1,0.3,13.7,0.3c4.8,0,9.5-0.1,14.1-0.3C266.1,257.7,261.5,263.3,256.6,268.7z M317.3,282.6c-0.4,5.7-3.2,11-7.7,14.5
	c-7.4,4.3-23.1-1.3-40.2-15.9c-2-1.7-3.9-3.5-5.9-5.3c7.1-7.9,13.7-16.2,19.6-24.9c10.6-0.9,21.2-2.5,31.7-4.9
	c0.5,1.9,0.9,3.8,1.3,5.7C318.5,261.8,318.8,272.3,317.3,282.6L317.3,282.6z M325.8,232.7c-1.3,0.4-2.6,0.8-4,1.2
	c-3.3-10.1-7.3-20-11.9-29.7c4.5-9.5,8.2-19.2,11.4-29.2c2.4,0.7,4.7,1.4,7,2.2c21.7,7.4,36.9,18.5,36.9,27
	C365.2,213.2,349,225,325.8,232.7z M256.2,225.7c11.8,0,21.3-9.5,21.3-21.3c0-11.8-9.5-21.3-21.3-21.3c-11.8,0-21.3,9.5-21.3,21.3
	C234.9,216.2,244.4,225.7,256.2,225.7L256.2,225.7z"/>
</svg>
